<svg width="20" height="21" viewBox="0 0 20 21" fill="none" xmlns="http://www.w3.org/2000/svg">
<g clip-path="url(#clip0_685_17813)">
<path d="M19.5829 5.56937C19.4696 5.1654 19.249 4.79966 18.9445 4.51104C18.6314 4.21354 18.2477 4.00074 17.8295 3.89271C16.2645 3.48021 9.99454 3.48021 9.99454 3.48021C7.38065 3.45047 4.7674 3.58127 2.16954 3.87187C1.75136 3.98788 1.36834 4.20545 1.05454 4.50521C0.746204 4.80187 0.522871 5.16771 0.406204 5.56854C0.125949 7.07833 -0.0102189 8.61133 -0.000462243 10.1469C-0.0104622 11.681 0.125371 13.2135 0.406204 14.7252C0.520371 15.1244 0.742871 15.4885 1.05204 15.7827C1.3612 16.0769 1.7462 16.2894 2.16954 16.4019C3.75537 16.8135 9.99454 16.8135 9.99454 16.8135C12.6118 16.8433 15.2283 16.7125 17.8295 16.4219C18.2477 16.3138 18.6314 16.101 18.9445 15.8035C19.2489 15.515 19.4693 15.1492 19.582 14.7452C19.8696 13.236 20.0094 11.7024 19.9995 10.166C20.0212 8.62321 19.8815 7.08234 19.5829 5.56854V5.56937ZM8.0012 13.0002V7.29437L13.2179 10.1477L8.0012 13.0002Z" fill="#112211"/>
</g>
<defs>
<clipPath id="clip0_685_17813">
<rect width="20" height="20" fill="white" transform="translate(0 0.146973)"/>
</clipPath>
</defs>
</svg>
