<svg width="16" height="16" viewBox="0 0 16 16" fill="none" xmlns="http://www.w3.org/2000/svg">
<path d="M14.4033 1.04004C14.5402 1.0694 14.6657 1.13834 14.7646 1.2373C14.8636 1.33667 14.932 1.46244 14.9609 1.59961C14.9899 1.73683 14.9781 1.87986 14.9277 2.01074V2.01172L10.1963 14.5088C10.1406 14.6474 10.0448 14.7662 9.9209 14.8496C9.79663 14.9331 9.64973 14.9774 9.5 14.9766H9.46973C9.17418 14.9633 8.92916 14.7657 8.83203 14.4844H8.83105C8.82906 14.479 8.8279 14.4735 8.82617 14.4678L8.8252 14.4658L6.99219 10.1719C6.96877 10.093 6.96681 10.009 6.98535 9.92871C7.00415 9.84764 7.04393 9.77288 7.10059 9.71191L7.09961 9.71094L13.5166 2.8291C13.5392 2.80645 13.5571 2.77956 13.5693 2.75C13.5816 2.72036 13.5879 2.68834 13.5879 2.65625C13.5879 2.62439 13.5815 2.59293 13.5693 2.56348C13.5571 2.53382 13.5393 2.50609 13.5166 2.4834C13.494 2.46081 13.467 2.44293 13.4375 2.43066C13.4079 2.4184 13.3758 2.41213 13.3438 2.41211C13.3117 2.41211 13.2797 2.41838 13.25 2.43066C13.2353 2.43677 13.2212 2.44432 13.208 2.45312L13.1709 2.4834L6.28516 8.89941C6.2242 8.95606 6.14941 8.99584 6.06836 9.01465C6.00741 9.02873 5.94413 9.03067 5.88281 9.02051L5.82227 9.00684L1.53418 7.1748H1.53223L1.51953 7.1709C1.37766 7.12343 1.25378 7.03255 1.16504 6.91211C1.07651 6.79184 1.02683 6.64735 1.02344 6.49805C1.02013 6.34858 1.06326 6.20135 1.14648 6.07715C1.22859 5.95472 1.34639 5.86076 1.4834 5.80664L1.49121 5.80371L13.9922 1.07227C14.1231 1.02248 14.2664 1.01071 14.4033 1.04004Z" fill="black" stroke="#112211" stroke-width="0.046875"/>
</svg>
