<svg width="24" height="24" viewBox="0 0 24 24" fill="none" xmlns="http://www.w3.org/2000/svg">
<path d="M10.4404 2.27344C14.9432 2.27367 18.6064 5.93758 18.6064 10.4404C18.6083 12.2031 18.0371 13.9187 16.9785 15.3281L16.9658 15.3447L16.9805 15.3584L21.3896 19.7676V19.7686C21.5851 19.9873 21.6898 20.2722 21.6816 20.5654C21.6734 20.8588 21.5532 21.1382 21.3457 21.3457C21.1382 21.5532 20.8588 21.6734 20.5654 21.6816C20.3089 21.6887 20.0586 21.6097 19.8535 21.459L19.7686 21.3896L15.3584 16.9805L15.3447 16.9658L15.3281 16.9785C13.9187 18.0371 12.2031 18.6083 10.4404 18.6064C5.93758 18.6064 2.27367 14.9432 2.27344 10.4404C2.27344 5.93744 5.93744 2.27344 10.4404 2.27344ZM11.5859 4.67969C10.4466 4.45306 9.2656 4.56914 8.19238 5.01367C7.11923 5.45819 6.20202 6.21097 5.55664 7.17676C4.91126 8.14264 4.56641 9.27877 4.56641 10.4404C4.56838 11.9974 5.18812 13.4898 6.28906 14.5908C7.39014 15.6919 8.88328 16.3116 10.4404 16.3135C11.6019 16.3134 12.7374 15.9685 13.7031 15.3232C14.6689 14.6779 15.4217 13.7607 15.8662 12.6875C16.3107 11.6143 16.4268 10.4332 16.2002 9.29395C15.9735 8.15471 15.4141 7.10846 14.5928 6.28711C13.7714 5.46576 12.7252 4.90633 11.5859 4.67969Z" fill="#112211" stroke="#112211" stroke-width="0.046875"/>
</svg>
