<svg width="20" height="16" viewBox="0 0 20 16" fill="none" xmlns="http://www.w3.org/2000/svg">
<path d="M19.7029 2.26112C19.0071 2.56946 18.2596 2.77779 17.4737 2.87196C18.2846 2.38678 18.8912 1.62318 19.1804 0.723622C18.4186 1.17611 17.5849 1.49462 16.7154 1.66529C16.1307 1.04101 15.3563 0.627227 14.5124 0.488184C13.6684 0.34914 12.8022 0.492615 12.0481 0.896333C11.2941 1.30005 10.6944 1.94142 10.3422 2.72088C9.99003 3.50033 9.90503 4.37425 10.1004 5.20696C8.55682 5.12945 7.04677 4.72825 5.66827 4.02938C4.28977 3.33051 3.07362 2.34959 2.09875 1.15029C1.76542 1.72529 1.57375 2.39196 1.57375 3.10196C1.57338 3.74112 1.73078 4.37049 2.03198 4.93423C2.33319 5.49797 2.76888 5.97865 3.30042 6.33362C2.68398 6.31401 2.08114 6.14744 1.54208 5.84779V5.89779C1.54202 6.79424 1.85211 7.6631 2.41974 8.35695C2.98736 9.0508 3.77756 9.5269 4.65625 9.70446C4.0844 9.85922 3.48486 9.88201 2.90292 9.77112C3.15083 10.5425 3.63375 11.217 4.28406 11.7002C4.93437 12.1835 5.71951 12.4513 6.52958 12.4661C5.15444 13.5456 3.45616 14.1312 1.70792 14.1286C1.39823 14.1287 1.08881 14.1106 0.78125 14.0745C2.55581 15.2154 4.62153 15.821 6.73125 15.8186C13.8729 15.8186 17.7771 9.90362 17.7771 4.77362C17.7771 4.60696 17.7729 4.43862 17.7654 4.27196C18.5248 3.72277 19.1803 3.0427 19.7012 2.26362L19.7029 2.26112V2.26112Z" fill="#112211"/>
</svg>
