<svg width="20" height="21" viewBox="0 0 20 21" fill="none" xmlns="http://www.w3.org/2000/svg">
<g clip-path="url(#clip0_685_16852)">
<path d="M19.5829 5.56986C19.4696 5.16589 19.249 4.80015 18.9445 4.51153C18.6314 4.21403 18.2477 4.00122 17.8295 3.89319C16.2645 3.48069 9.99454 3.48069 9.99454 3.48069C7.38065 3.45096 4.7674 3.58176 2.16954 3.87236C1.75136 3.98837 1.36834 4.20593 1.05454 4.50569C0.746204 4.80236 0.522871 5.16819 0.406204 5.56903C0.125949 7.07881 -0.0102189 8.61181 -0.000462243 10.1474C-0.0104622 11.6815 0.125371 13.214 0.406204 14.7257C0.520371 15.1249 0.742871 15.489 1.05204 15.7832C1.3612 16.0774 1.7462 16.2899 2.16954 16.4024C3.75537 16.814 9.99454 16.814 9.99454 16.814C12.6118 16.8438 15.2283 16.713 17.8295 16.4224C18.2477 16.3143 18.6314 16.1015 18.9445 15.804C19.2489 15.5155 19.4693 15.1497 19.582 14.7457C19.8696 13.2365 20.0094 11.7029 19.9995 10.1665C20.0212 8.6237 19.8815 7.08283 19.5829 5.56903V5.56986ZM8.0012 13.0007V7.29486L13.2179 10.1482L8.0012 13.0007Z" fill="#112211"/>
</g>
<defs>
<clipPath id="clip0_685_16852">
<rect width="20" height="20" fill="white" transform="translate(0 0.147461)"/>
</clipPath>
</defs>
</svg>
